<?xml version="1.0" encoding="UTF-8"?>
<svg width="48px" height="48px" viewBox="0 0 48 48" version="1.1" xmlns="http://www.w3.org/2000/svg" xmlns:xlink="http://www.w3.org/1999/xlink">
    <!-- Generator: Sketch 48.1 (47250) - http://www.bohemiancoding.com/sketch -->
    <title>transferencia</title>
    <desc>Created with Sketch.</desc>
    <defs></defs>
    <g id="Symbols" stroke="none" stroke-width="1" fill="none" fill-rule="evenodd">
        <g id="transferencia">
            <g id="Group-8" stroke="#EEEEEE">
                <g id="Group-4">
                    <path d="M24,47.5 C36.9786916,47.5 47.5,36.9786916 47.5,24 C47.5,11.0213084 36.9786916,0.5 24,0.5 C11.0213084,0.5 0.5,11.0213084 0.5,24 C0.5,36.9786916 11.0213084,47.5 24,47.5 Z" id="Oval-Copy-3"></path>
                </g>
            </g>
            <g id="Group-10" transform="translate(10.000000, 9.000000)">
                <g id="Transferencia" transform="translate(0.272472, 0.209397)">
                    <g id="Group-6" transform="translate(0.727528, 0.790603)">
                        <polygon id="Fill-4" fill="#0864EE" points="4 23 7 23 7 11 4 11"></polygon>
                        <polygon id="Fill-6" fill="#0864EE" points="9 23 12 23 12 11 9 11"></polygon>
                        <polygon id="Fill-7" fill="#0864EE" points="14 23 17 23 17 11 14 11"></polygon>
                        <polygon id="Fill-8" fill="#0864EE" points="19 23 22 23 22 11 19 11"></polygon>
                        <polygon id="Fill-9" fill="#5697FA" points="2 25 24 25 24 22 2 22"></polygon>
                        <path d="M13.6459103,0.546568862 L24.541135,9.76563021 C24.8362593,10.0153514 24.8730658,10.457036 24.6233445,10.7521603 C24.4903416,10.9093452 24.2948798,11 24.0889747,11 L1.91095934,11 C1.52436001,11 1.21095934,10.6865993 1.21095934,10.3 C1.21095934,10.0940949 1.30161413,9.89863319 1.45879905,9.76563021 L12.3540238,0.546568862 C12.72687,0.231082755 13.2730641,0.231082755 13.6459103,0.546568862 Z" id="Rectangle" fill="#5697FA"></path>
                        <polyline id="Path-2" fill="#0864EE" points="8.20965576 8 17.8197689 8 13 3.9362793"></polyline>
                    </g>
                </g>
            </g>
        </g>
    </g>
</svg>